<svg xmlns="http://www.w3.org/2000/svg" xmlns:xlink="http://www.w3.org/1999/xlink" width="1200" height="1600" viewBox="0 0 1200 1600"><defs><path id="a" d="M40.9998,181.83418 C40.9998,97.0581796 109.7238,28.3339796 194.4998,28.3339796 C279.2758,28.3339796 347.9998,97.0581796 347.9998,181.83418 L347.9998,254.33418 L348.7798,268.55018 C349.9158,289.24118 347.3648,309.96918 341.2438,329.76718 L329.0298,369.27318 C316.9558,408.32818 287.9218,440.29518 250.3478,456.39818 C215.0098,471.54418 174.5448,471.35418 139.4848,455.57718 C104.4408,439.80818 77.6058,410.07918 65.4968,373.60918 L49.9068,326.65818 C44.0068,308.89118 40.9998,290.29118 40.9998,271.57018 L40.9998,254.33418 L40.9998,181.83418 Z"/></defs><g fill="none" fill-rule="evenodd" transform="translate(221 102)"><g fill-rule="nonzero" transform="translate(73.492 930.061)"><polygon fill="#110B15" points="122.056 391.274 120.508 363.274 181.508 363.274 181.508 391.274"/><polygon fill="#110B15" points="274.183 407.274 272.508 363.274 338.508 363.274 338.508 407.274"/><path fill="#161616" d="M12.2714169,462.534 C12.0712169,439.584 15.1975169,425.624 35.1470169,416.244 C55.0970169,406.874 73.8880169,388.844 108.402017,373.384 C108.402017,373.384 112.945017,372.524 120.340017,376.524 C126.650017,379.934 134.756017,388.314 146.970017,388.204 C160.232017,388.084 172.051017,385.274 179.394017,381.424 C182.566017,372.734 189.604017,372.674 189.604017,372.674 C189.604017,372.674 199.513017,391.534 199.679017,410.484 C199.844017,429.424 199.827513,460.904 199.827513,460.904 L12.2714169,462.534 Z"/><path fill="#FFF" d="M101.203429,374.770563 C102.569471,374.163278 104.169168,374.778371 104.776454,376.144413 C105.551386,377.887564 106.110271,379.80184 106.491982,381.884715 C107.051708,384.938962 107.174857,387.441468 107.174857,391.864 C107.174857,393.762618 105.280268,395.052792 103.532739,394.404378 L103.374335,394.340054 L90.189,388.516 L93.0023922,398.714178 C93.5603465,400.736778 91.7110575,402.574369 89.7199905,402.056143 L89.5625478,402.010297 L76.316,397.74 L76.3168569,409.724 C76.3168569,411.71833 74.2442007,413.008049 72.4716374,412.180124 L72.3204937,412.10394 L63.323,407.228 L63.3238569,416.224 C63.3238569,417.663578 62.2000709,418.840682 60.7819101,418.9259 L60.6170169,418.93084 C59.1774389,418.93084 58.0003351,417.807054 57.915117,416.388893 L57.9101769,416.224 L57.9101769,402.684 C57.9101769,400.68967 59.9828332,399.399951 61.7553964,400.227876 L61.9065401,400.30406 L70.903,405.179 L70.9031769,394.024 C70.9031769,392.245089 72.5826493,390.966303 74.2765692,391.400315 L74.4404861,391.447703 L86.449,395.318 L83.4526417,384.453822 C82.8597101,382.304428 84.965746,380.424955 87.0098355,381.198173 L87.1556992,381.257946 L101.691,387.678 L101.674375,387.325576 C101.597246,385.811133 101.45905,384.53175 101.223168,383.175156 L101.166983,382.860583 C100.858111,381.175165 100.41756,379.666204 99.82958,378.343587 C99.2222946,376.977546 99.837388,375.377848 101.203429,374.770563 Z"/><path fill="#161616" d="M19.8188169,418.004 C25.9395169,415.784 32.4210169,414.104 44.8490169,411.294 L39.5680169,426.494 L39.7190169,443.814 L4.34641693,444.124153 C2.90281693,444.144 0.323516927,442.214 1.55471693,434.404 C3.09371693,424.644 11.1218169,421.154 19.8188169,418.004 Z"/><path fill="gray" d="M200.420017,457.944 L199.393017,439.714 L40.7870169,442.184 L1.24081693,439.284 L0.0327169268,453.254 C-0.384283073,458.084 3.23431693,462.314 8.06491693,462.644 L40.9860169,464.924 L196.163017,462.514 C198.624017,462.474 200.558017,460.394 200.420017,457.944 Z"/><path fill="#161616" d="M443.920017,462.534 C444.120017,439.584 440.994017,425.624 421.044017,416.244 C401.095017,406.874 382.303017,388.844 347.790017,373.384 C347.790017,373.384 343.247017,372.524 335.852017,376.524 C329.541017,379.934 321.435017,388.314 309.222017,388.204 C295.959017,388.084 284.140017,385.274 276.797017,381.424 C273.625017,372.734 266.587017,372.674 266.587017,372.674 C266.587017,372.674 256.678017,391.534 256.513017,410.484 C256.347017,429.424 256.363526,460.904 256.363526,460.904 L443.920017,462.534 Z"/><path fill="#FFF" d="M351.415769,376.143989 C352.023288,374.778051 353.623091,374.163232 354.989028,374.770752 C356.354966,375.378271 356.969785,376.978074 356.362265,378.344011 C355.77404,379.666568 355.333307,381.175458 355.024306,382.860801 C354.753746,384.33648 354.599794,385.694765 354.516696,387.325665 L354.499,387.678 L369.036384,381.257924 C371.075954,380.357088 373.243162,382.16562 372.777191,384.300787 L372.739392,384.453822 L369.742,395.318 L381.750503,391.447718 C383.443631,390.901906 385.176047,392.108046 385.28267,393.853447 L385.287857,394.024 L385.287,405.179 L394.284494,400.30406 C396.037972,399.353973 398.159336,400.561903 398.275836,402.514816 L398.280857,402.684 L398.280857,416.224 C398.280857,417.718946 397.068963,418.93084 395.574017,418.93084 C394.134439,418.93084 392.957335,417.807054 392.872117,416.388893 L392.867177,416.224 L392.867,407.228 L383.87054,412.10394 C382.117062,413.054027 379.995698,411.846097 379.879197,409.893184 L379.874177,409.724 L379.874,397.74 L366.629531,402.010282 C364.632562,402.654043 362.717723,400.884814 363.150552,398.873435 L363.189642,398.714178 L366.002,388.516 L352.81665,394.340076 C351.079913,395.107157 349.134286,393.895387 349.021339,392.034887 L349.016177,391.864 L349.018703,390.838175 C349.038686,387.037456 349.184186,384.694488 349.699387,381.884497 C350.081288,379.801548 350.640451,377.8872 351.415769,376.143989 Z"/><path fill="#161616" d="M436.373017,418.004 C430.252017,415.784 423.770017,414.104 411.342017,411.294 L416.624017,426.494 L416.472017,443.814 L451.845017,444.124153 C453.288017,444.144 455.868017,442.214 454.637017,434.404 C453.098017,424.644 445.070017,421.154 436.373017,418.004 Z"/><path fill="gray" d="M255.771017,457.944 L256.799017,439.714 L415.404017,442.184 L454.951017,439.284 L456.159017,453.254 C456.576017,458.084 452.957017,462.314 448.126017,462.644 L415.205017,464.924 L260.028017,462.514 C257.567017,462.474 255.633017,460.394 255.771017,457.944 Z"/><polygon fill="#1E1425" points="73.849 0 199.682 10.664 199.682 363.634 108.534 363.634"/><polygon fill="#1E1425" points="227.404 10.664 356.436 10.664 356.436 363.634 262.971 363.634"/><polygon fill="#110B15" points="100.508 339.274 200.508 339.274 200.508 367.274 105.008 367.274"/><polygon fill="#110B15" points="361.508 340.694 251.508 339.274 256.848 367.274 358.463 367.274"/></g><g transform="translate(0 316.785)"><path fill="#000" fill-rule="nonzero" d="M456.423,161.445 C425.079,131.131 374.675,133.486 346.293,166.589 C318.301,199.239 323.086,248.618 356.827,275.285 L542.672,422.168 C570.238,443.955 610.223,439.393 632.172,411.956 C652.763,386.217 650.392,349.038 626.699,326.124 L456.423,161.445 Z"/><ellipse cx="285.84" cy="612.459" fill="#1E1425" fill-rule="nonzero" rx="121.116" ry="57.371"/><rect width="195.436" height="362.437" x="52.122" y="144.852" fill="#000" fill-rule="nonzero" rx="97.718" transform="rotate(17.962 149.84 326.07)"/><rect width="94" height="161" x="234.008" y="65.549" fill="#2D2928" fill-rule="nonzero" rx="47"/><path fill="#5A5E65" fill-rule="nonzero" d="M186.795 220.85C214.521 200.589 208.122 128.608 226.251 128.608 283.302 178.728 274.504 264.571 255.043 386.138 225.184 237.912 208.389 251.775 186.795 220.85zM385.581 216.051C357.855 195.79 364.253 123.81 346.125 123.81 289.074 173.929 297.871 259.772 317.333 381.339 347.191 233.113 363.987 246.976 385.581 216.051z"/><path fill="#070317" fill-rule="nonzero" d="M138.854,196.675 C143.322,166.533 168.855,144.458 199.343,144.228 L290.162,143.545 L374.607,151.927 C403.358,154.781 426.815,176.767 431.024,205.43 C440.941,272.967 457.178,396.478 457.345,482.175 C457.585,605.632 479.011,617.497 445.905,633.586 C412.799,649.675 147.679,646.699 111.433,621.524 C75.188,596.35 97.6429,570.282 97.5431,519.075 C97.4684,480.771 124.983,290.256 138.854,196.675 Z"/><path fill="#22202A" fill-rule="nonzero" d="M244.633,255.693 C203.904,248.127 116.082,165.855 161.902,123.3 C191.176,87.838 238.27,135.121 244.633,158.763 C249.725,177.676 263.725,224.171 272.635,236.779 C282.817,245.842 285.363,263.258 244.633,255.693 Z"/><path fill="#22202A" fill-rule="nonzero" d="M322.367,255.693 C363.096,248.127 450.918,165.855 405.098,123.3 C375.824,87.838 328.73,135.121 322.367,158.763 C317.275,177.676 303.275,224.171 294.365,236.779 C284.183,245.842 281.637,263.258 322.367,255.693 Z"/><path stroke="#19181E" stroke-linecap="round" stroke-width="14" d="M217.684 221.549L217.684 331.549M341.955 221.549L341.955 309.549"/><path fill="#4D3D2C" fill-rule="nonzero" d="M682.752 10.674C682.327 7.164 685.433 2.229 690.964.848 698.963 1.02 755.597 65.25 756.49 70.271 757.382 75.291 751.265 80.661 745.799 79.043 740.332 77.425 683.176 14.184 682.752 10.674zM663.455 26.764C663.03 23.254 666.137 18.319 671.668 16.938 679.666 17.109 736.3 81.34 737.193 86.361 738.085 91.381 731.968 96.751 726.502 95.133 721.035 93.515 663.879 30.273 663.455 26.764zM639.068 44.6C638.627 40.965 641.851 35.855 647.59 34.425 655.89 34.603 714.664 101.122 715.59 106.321 716.517 111.52 710.169 117.081 704.497 115.405 698.824 113.73 639.509 48.235 639.068 44.6z"/><path fill="#4062DA" fill-rule="nonzero" d="M213.002,344.953 C239.711,325.792 236.552,298.999 253.001,258.953 C271.27,214.475 319.001,170.45 355.002,192.952 C374.999,205.451 331.993,224.401 322.999,246.953 C314.289,268.795 327.732,286.81 333.999,293.453 C358.999,319.951 388.104,295.178 396.002,301.456 C411.499,317.166 406.502,376.02 406.502,397.955 C406.502,430.955 415.011,434.427 432.002,436.455 C453.612,439.035 480.172,415.229 498.002,436.455 C515.833,457.682 434.033,476.569 396.002,507.955 C357.972,539.342 382.506,601.115 304.502,660.455 C270.068,686.65 182.474,705.54 114.424,642.653 C46.3745,579.771 18.5401,519.955 56.9995,436.456 C84.7955,376.108 167.002,377.953 213.002,344.953 Z"/><path fill="#6E8EFF" fill-rule="nonzero" d="M160.53,468.963 C170.656,463.179 189.616,488.592 210.617,512.048 C234.138,534.559 259.629,558.611 252.023,563.449 C244.418,568.287 227.19,555.414 219.799,550.254 C212.408,545.094 194.987,541.219 181.802,526.433 C168.616,511.646 167.937,496.628 165.578,490.076 C163.218,483.524 150.403,474.747 160.53,468.963 Z"/><path fill="#63503C" fill-opacity=".21" fill-rule="nonzero" d="M344.277,424.986 L308.349,384.808 C302.722,378.516 292.875,378.512 287.244,384.8 C282.439,390.166 282.427,398.284 287.216,403.663 L323.057,443.92 C328.934,450.522 339.346,450.219 344.829,443.288 C349.12,437.864 348.887,430.141 344.277,424.986 Z"/><polygon fill="#AD947A" fill-opacity=".21" fill-rule="nonzero" points="308.167 395.815 305.667 392.814 295.168 402.314 298.167 405.315"/><polygon fill="#AD947A" fill-opacity=".21" fill-rule="nonzero" points="314.167 401.815 311.667 398.814 301.168 408.314 304.167 411.315"/><polygon fill="#AD947A" fill-opacity=".21" fill-rule="nonzero" points="319.167 408.815 316.667 405.814 306.168 415.314 309.167 418.315"/><polygon fill="#AD947A" fill-opacity=".21" fill-rule="nonzero" points="324.358 415.048 321.858 412.047 311.359 421.548 314.358 424.548"/><polygon fill="#AD947A" fill-opacity=".21" fill-rule="nonzero" points="330.358 420.048 327.858 417.047 317.359 426.548 320.358 429.548"/><polygon fill="#AD947A" fill-opacity=".21" fill-rule="nonzero" points="336.358 426.048 333.858 423.047 323.359 432.548 326.358 435.548"/><path fill="#63503C" fill-opacity=".21" fill-rule="nonzero" d="M297.077,463.48 L263.625,426.072 C257.346,419.05 246.399,418.916 239.95,425.781 C234.257,431.841 234.131,441.245 239.66,447.455 L273.029,484.937 C279.557,492.269 291.069,492.111 297.392,484.601 C302.559,478.464 302.425,469.461 297.077,463.48 Z"/><polygon fill="#AD947A" fill-opacity=".21" fill-rule="nonzero" points="262.358 439.048 259.858 436.047 249.359 445.548 252.358 448.548"/><polygon fill="#AD947A" fill-opacity=".21" fill-rule="nonzero" points="268.358 445.048 265.858 442.047 255.359 451.548 258.358 454.548"/><polygon fill="#AD947A" fill-opacity=".21" fill-rule="nonzero" points="273.358 452.048 270.858 449.047 260.359 458.548 263.358 461.548"/><polygon fill="#AD947A" fill-opacity=".21" fill-rule="nonzero" points="278.358 458.048 275.858 455.047 265.359 464.548 268.358 467.548"/><polygon fill="#AD947A" fill-opacity=".21" fill-rule="nonzero" points="284.358 464.048 281.858 461.047 271.359 470.548 274.358 473.548"/><polygon fill="#AD947A" fill-opacity=".21" fill-rule="nonzero" points="290.358 469.048 287.858 466.047 277.359 475.548 280.358 478.548"/><path fill="#4062DA" fill-rule="nonzero" d="M634.016,68.134 C632.228,76.898 625.567,88.957 622.461,93.892 L654.245,127.582 C656.131,125.122 663.114,119.771 675.954,118.046 C692.004,115.89 703.335,100.63 714.197,83.859 C725.06,67.089 776.935,50.199 745.618,18.019 C714.302,-14.161 703.999,23.126 677.715,36.065 C651.431,49.004 636.252,57.18 634.016,68.134 Z"/><polygon fill="#292D34" fill-rule="nonzero" points="227.333 538.01 185.788 493.107 182.713 496.542 221.759 541.391"/><circle cx="711.445" cy="33.386" r="8.262" fill="#F1F1F1" fill-rule="nonzero" transform="rotate(1.23 711.445 33.386)"/><circle cx="725.169" cy="47.557" r="8.262" fill="#F1F1F1" fill-rule="nonzero" transform="rotate(1.23 725.169 47.557)"/><circle cx="688.261" cy="45.717" r="8.262" fill="#F1F1F1" fill-rule="nonzero" transform="rotate(1.23 688.261 45.717)"/><circle cx="708.445" cy="67.387" r="8.262" fill="#F1F1F1" fill-rule="nonzero" transform="rotate(1.23 708.445 67.387)"/><circle cx="666.5" cy="58.472" r="8.262" fill="#F1F1F1" fill-rule="nonzero" transform="rotate(1.23 666.5 58.472)"/><circle cx="696.444" cy="88.387" r="8.262" fill="#F1F1F1" fill-rule="nonzero" transform="rotate(1.23 696.444 88.387)"/><path fill="#F9D2C6" fill-rule="nonzero" d="M510.775578 183.968274C529.124211 175.448399 550.871114 183.251305 559.654547 201.39171L559.916726 201.944578 630.828726 354.662578C639.434661 373.19655 631.386395 395.197792 612.852422 403.803726 594.503789 412.323601 572.756886 404.520695 563.973453 386.38029L563.711274 385.827422 492.799274 233.109422C484.193339 214.57545 492.241605 192.574208 510.775578 183.968274zM85.6875178 375.542142L255.150618 376.012142C275.585075 376.068817 292.104532 392.680161 292.048003 413.114618 291.99175 433.34473 275.710411 449.737751 255.557256 450.008598L254.945382 450.011858 85.4822822 449.541858C65.047825 449.485183 48.528368 432.873839 48.5848969 412.439382 48.6411498 392.20927 64.9224892 375.816249 85.0756438 375.545402L85.6875178 375.542142z"/><rect width="109.849" height="220.624" x="86.961" y="306.322" fill="#070317" fill-rule="nonzero" rx="54.925" transform="rotate(-89.396 141.885 416.634)"/><rect width="107.77" height="220.624" x="517.498" y="208.33" fill="#070317" fill-rule="nonzero" rx="53.885" transform="rotate(-24.525 571.383 318.642)"/><polygon fill="#63503C" fill-rule="nonzero" points="323.57 365.037 621.993 92.382 655.255 127.105 365.05 412.939"/><polygon fill="#000" fill-rule="nonzero" points="661.871 58.874 662.557 59.602 191.914 503.598 191.228 502.87"/><polygon fill="#000" fill-rule="nonzero" points="692.198 44.021 692.882 44.751 196.773 510.205 196.089 509.475"/><polygon fill="#000" fill-rule="nonzero" points="717.127 31.369 717.813 32.097 205.342 514.203 204.656 513.475"/><polygon fill="#000" fill-rule="nonzero" points="721.095 38.327 721.781 39.055 211.343 519.705 210.657 518.977"/><polygon fill="#000" fill-rule="nonzero" points="691.752 88.022 692.438 88.75 219.774 533.703 219.088 532.975"/><polygon fill="#000" fill-rule="nonzero" points="709.33 60.036 710.016 60.764 213.342 529.207 212.656 528.479"/><path stroke="#F9D2C6" stroke-linecap="round" stroke-width="74" d="M597.27,370.245 L526.358,217.527"/><rect width="107.77" height="220.624" x="517.498" y="208.33" fill="#070317" fill-rule="nonzero" rx="53.885" transform="rotate(-24.525 571.383 318.642)"/></g><g transform="translate(93)"><rect width="72.057" height="115" x="153.793" y="411.334" fill="#F9D2C6" fill-rule="nonzero" rx="36.028"/><path fill="#F9D2C6" fill-rule="nonzero" d="M338.2678 350.86718C370.9998 350.86718 397.5348 324.33218 397.5348 291.60018 397.5348 258.86818 370.9998 232.33418 338.2678 232.33418 305.5358 232.33418 279.0018 258.86818 279.0018 291.60018 279.0018 324.33218 305.5358 350.86718 338.2678 350.86718zM59.2668 353.86718C26.5348 353.86718-4.68958206e-13 327.33218-4.68958206e-13 294.60018-4.68958206e-13 261.86818 26.5348 235.33418 59.2668 235.33418 91.9988 235.33418 118.5328 261.86818 118.5328 294.60018 118.5328 327.33218 91.9988 353.86718 59.2668 353.86718z"/><path fill="#FEE6DD" fill-rule="nonzero" d="M41.0018,181.83418 C41.0018,97.0581796 109.7258,28.3339796 194.5018,28.3339796 C279.2778,28.3339796 348.0018,97.0581796 348.0018,181.83418 L348.0018,254.33418 L348.7818,268.55018 C349.9178,289.24118 347.3668,309.96918 341.2458,329.76718 L329.0318,369.27318 C316.9578,408.32818 287.9228,440.29518 250.3498,456.39818 C215.0118,471.54418 174.5468,471.35418 139.4858,455.57718 C104.4428,439.80818 77.6078,410.07918 65.4988,373.60918 L49.9088,326.65818 C44.0088,308.89118 41.0018,290.29118 41.0018,271.57018 L41.0018,254.33418 L41.0018,181.83418 Z"/><path fill="#45332B" fill-rule="nonzero" d="M151.9998,19.3344796 C176.7588,12.4402796 178.6878,-0.097490394 212.0018,0.834349606 C258.220638,2.12718423 279.367502,23.5292614 290.004008,40.9313231 C300.671209,37.896146 316.700008,44.3308481 333.0028,54.3343796 C354.5018,67.5265796 362.4998,90.8344796 366.4998,97.3341796 C375.023151,111.185243 376.958932,133.845836 374.578096,159.505418 L374.4998,160.33418 C372.4998,181.13418 367.0028,216.66818 362.5028,237.33418 L362.000712,237.118082 C359.162828,235.91447 353.885153,233.957709 352.0028,234.33418 C349.5028,234.83418 351.5028,265.33418 344.5028,265.33418 C337.5028,265.33418 344.5028,206.83418 339.5028,198.33418 C334.5028,189.83418 338.0018,167.83518 311.0018,154.33418 L307.192856,152.434448 C292.510851,145.041783 277.252022,135.54034 273.674544,94.9633493 C262.761975,98.2706243 247.008518,91.0748429 239.0008,95.8341796 C224.0008,104.74918 227.5008,129.83418 188.0008,138.83418 C156.0008,146.12518 120.0008,140.83418 98.5008,153.33418 C83.1730222,162.246046 81.5358617,186.780863 64.5782486,197.962373 L64.0008,198.33418 C46.8508,209.11418 46.0276,237.18138 45.06034,244.8881 L45.0008,245.33418 C44.0008,252.33418 46.5008,261.83418 42.0008,261.83418 C37.6054512,261.83418 37.9802484,245.615683 38.0000579,240.668043 L38.0008,240.33418 C38.0008,238.33418 32.5008,244.33418 26.5008,245.33418 C20.5008,246.33418 16.4998,216.83418 23.0008,183.83418 C26.9628,163.72118 -11.9997,107.33418 55.9998,44.3344796 C87.6138,15.0448796 123.6188,27.2371796 151.9998,19.3344796 Z"/><mask id="b" fill="#fff"><use xlink:href="#a"/></mask><g fill-rule="nonzero" mask="url(#b)"><g transform="translate(15 291.785)"><path fill="#CAC4C1" fill-opacity=".64" d="M120.999,172.548 C114.951,169.18 65.5,143.049 72.999,115.548 C80.498,88.048 119.499,137.049 138.999,152.549 C158.499,168.049 162.002,159.049 179.501,159.049 C196.999,159.048 204.502,166.131 214.5,155.548 C224.499,144.966 273.921,91.529 281.499,112.549 C297,155.549 240.998,170.65 217.498,177.548 C186.498,186.647 141.647,184.048 120.999,172.548 Z"/><circle cx="303" cy="64.549" r="64" fill="#FEDFD5"/><circle cx="64" cy="66.549" r="64" fill="#FEDFD5"/></g></g><path fill="#4E372B" fill-rule="nonzero" d="M115.232169 264.046066L115.195699 264.012921 115.497728 264.246457C115.636469 264.350809 115.794612 264.466067 115.971397 264.590567 116.888659 265.236544 117.978699 265.901546 119.210625 266.527545 122.87923 268.391735 126.853998 269.444339 130.94254 269.324872 134.974974 269.207053 138.36945 268.223343 141.197578 266.679805 142.194868 266.135504 143.024979 265.571805 143.678748 265.04152L143.970441 264.796103 144.083833 264.696157 143.957558 264.829359C148.102356 260.387751 155.063013 260.147139 159.504621 264.291937 163.946229 268.436735 164.186841 275.397393 160.042042 279.839001 159.473301 280.44847 158.64033 281.233098 157.53758 282.127561 155.879063 283.472817 153.947228 284.784658 151.737175 285.990862 145.974709 289.135903 139.223796 291.092299 131.585084 291.315487 123.488397 291.552072 115.981444 289.564068 109.244308 286.140615 107.032433 285.016658 105.049139 283.806707 103.30404 282.577731L102.71855 282.158368C101.881209 281.548053 101.228422 281.024563 100.767431 280.622294 96.1900317 276.627966 95.7173587 269.679209 99.7116859 265.10181 103.706013 260.524411 110.65477 260.051738 115.232169 264.046066zM245.232169 264.046066L245.195699 264.012921 245.497728 264.246457C245.636469 264.350809 245.794612 264.466067 245.971397 264.590567 246.888659 265.236544 247.978699 265.901546 249.210625 266.527545 252.87923 268.391735 256.853998 269.444339 260.94254 269.324872 264.974974 269.207053 268.36945 268.223343 271.197578 266.679805 272.194868 266.135504 273.024979 265.571805 273.678748 265.04152L273.970441 264.796103 274.083833 264.696157 273.957558 264.829359C278.102356 260.387751 285.063013 260.147139 289.504621 264.291937 293.946229 268.436735 294.186841 275.397393 290.042042 279.839001 289.473301 280.44847 288.64033 281.233098 287.53758 282.127561 285.879063 283.472817 283.947228 284.784658 281.737175 285.990862 275.974709 289.135903 269.223796 291.092299 261.585084 291.315487 253.488397 291.552072 245.981444 289.564068 239.244308 286.140615 237.032433 285.016658 235.049139 283.806707 233.30404 282.577731L232.71855 282.158368C231.881209 281.548053 231.228422 281.024563 230.767431 280.622294 226.190032 276.627966 225.717359 269.679209 229.711686 265.10181 233.706013 260.524411 240.65477 260.051738 245.232169 264.046066z" mask="url(#b)"/><path fill="#EBBAAA" fill-rule="nonzero" d="M186.104869,269.094118 L200.894731,277.476242 L200.089929,278.909998 C193.189327,291.324221 188.246363,303.40729 187.176188,312.992575 L187.107165,313.656761 C186.099716,324.15733 189.775705,328.602589 202.681151,328.779654 L203.4998,328.78518 L203.4998,345.78518 C179.121763,345.78518 167.945748,332.023996 170.281162,311.106285 C171.689928,298.488322 177.511118,284.396717 185.65032,269.899906 L186.104869,269.094118 Z" mask="url(#b)"/><path fill="#1B1A1A" fill-opacity=".92" fill-rule="nonzero" d="M102.2688 207.61018L169.2718 218.07818C171.7058 218.45818 173.4998 220.55418 173.4998 223.01818L173.4998 234.33718C173.4998 237.45918 170.6718 239.81718 167.6008 239.25618L109.3058 228.60418C108.4498 228.44818 107.5668 228.51818 106.7468 228.80718L84.6598 236.58418C81.4078 237.72918 77.9988 235.31618 77.9988 231.86818L77.9988 223.46618C77.9988 221.69618 78.9338 220.05918 80.4578 219.15918L98.9568 208.24418C99.9538 207.65618 101.1248 207.43218 102.2688 207.61018zM296.0878 207.60618L229.7398 217.81018C227.3008 218.18518 225.4998 220.28418 225.4998 222.75218L225.4998 234.35018C225.4998 237.46718 228.3208 239.82518 231.3878 239.27118L289.0048 228.87118C289.8618 228.71618 290.7438 228.78818 291.5638 229.07818L313.8298 236.97018C317.0848 238.12318 320.5008 235.71018 320.5008 232.25718L320.5008 223.62618C320.5008 221.86218 319.5708 220.22818 318.0538 219.32718L299.4008 208.24918C298.4038 207.65718 297.2328 207.43018 296.0878 207.60618z" mask="url(#b)"/><path fill="#382922" fill-rule="nonzero" d="M169.934755-3.6874248C184.546848-5.06964982 205.847446-.0929338257 231.825362 9.61555981 251.058216 16.8032816 272.032987 26.3690558 288.242865 34.9195753L289.316393 35.4880686 283.683207 46.0836906C267.776276 37.6267344 246.768783 28.0108551 227.624488 20.8562294L226.006182 20.2555663C202.369238 11.5431742 183.075942 7.1230592 171.06484 8.25924447 155.356488 9.74515693 142.042022 16.4741807 124.52228 29.8424628L123.298715 30.7849935C120.636003 32.8632673 110.427803 40.9080965 107.380214 43.1685028 101.362236 47.6320561 96.4930437 50.654688 91.7420584 52.6455708L91.2509565 52.8478605 86.7486435 41.7244987C90.2754998 40.2969616 94.1903308 37.9366742 99.1520145 34.3237439L100.231496 33.5302548C103.368843 31.2032747 115.011592 22.0148094 116.498971 20.8721147L117.991249 19.7334441C136.790285 5.48919809 151.73208-1.96556492 169.934755-3.6874248zM52.4289399 160.055836C58.9443349 143.767348 94.4180533 132.037914 118.638139 135.245627L119.368595 135.347413 117.631005 147.220946C98.2465416 144.384195 67.6202409 154.388572 63.5706601 164.512524 61.5806723 169.487493 58.2629306 174.787691 53.7405818 180.525808 50.2271772 184.983741 46.0558215 189.623136 41.1183896 194.667323L39.8057926 195.997264C34.807063 201.002125 21.6101911 213.558491 19.8554703 215.410696 17.3612283 218.043448 16.9947911 220.714298 18.4341589 224.004244 19.9489936 227.466683 23.3880888 231.131756 27.7345082 233.915938L28.1579277 234.182589 21.8416723 244.38577C15.3634564 240.375446 10.0695857 234.823863 7.44029108 228.814116 4.13353262 221.255897 5.20815943 213.423271 11.1440839 207.157712L11.5869072 206.702988C14.7549469 203.504519 27.7989607 191.086897 31.8273651 187.001521 36.8055901 181.952892 40.9376163 177.384282 44.3158063 173.097914 48.1862346 168.186978 50.9294021 163.80468 52.4289399 160.055836z" mask="url(#b)"/><path fill="#382922" fill-rule="nonzero" d="M220.232295,39.9155189 C241.981742,37.756732 267.645347,38.3045385 288.819657,40.6696752 L290.194139,40.8264906 L288.805461,52.7458686 C268.178694,50.3427269 242.715992,49.7428195 221.417555,51.8568403 L219.834691,52.0196709 C194.142975,54.7565843 176.399802,61.2799196 170.026978,71.0614625 C160.047619,86.3786182 142.6055,97.678932 119.29262,106.284767 C110.273091,109.614281 100.862672,112.372376 90.3059877,114.956281 L88.1635936,115.473391 C82.8649476,116.726507 69.9937263,119.582934 67.9940462,120.097137 L60.9088993,121.933769 C56.8806816,122.997132 55.0525252,123.544373 52.016848,124.536226 C35.1778996,130.038047 26.4701655,137.074433 25.9936112,147.558626 L25.6063572,156.355248 C25.0880078,167.493341 24.5792637,173.123155 23.3980848,178.661834 L23.2665286,179.265952 C21.3339376,187.962267 17.7797002,194.034783 11.647538,197.405979 L11.283842,197.601169 L5.71575803,186.97119 L6.02784008,186.79929 C10.8516439,184.007282 12.6142521,176.503902 13.6333885,155.425004 L14.0059888,147.013734 C14.4257805,137.778315 18.6971471,130.202919 26.0567344,124.255919 C31.6081421,119.77004 38.6608524,116.342426 47.4830517,113.396169 L49.6863703,112.677461 C52.791505,111.683169 55.0205004,111.058923 60.4911054,109.639794 L65.278507,108.406685 C68.1816775,107.690654 80.8322894,104.881481 85.627081,103.74212 L86.1099462,103.626606 C96.8119085,101.046448 106.221964,98.31823 115.13698,95.0272956 C135.985915,87.3310139 151.290071,77.4893934 159.654344,64.9928435 L159.972622,64.5108967 C169.098581,50.5036105 190.305316,42.8859837 220.232295,39.9155189 Z" mask="url(#b)"/><path fill="#382922" fill-rule="nonzero" d="M184.513595 23.3004435C211.165263-.390165182 242.32212-12.1873688 263.911743-2.70899334 272.584175 1.09842113 280.174914 8.49188827 286.656145 18.3026623 291.349718 25.4074205 295.238301 33.5456713 297.483715 40.2542359L297.710104 40.9430244 286.289496 44.6267348C281.489197 29.7443663 270.666704 13.3621361 259.087859 8.27873337 243.068785 1.24596604 216.546321 11.1574252 193.192707 31.645242L192.486005 32.2693157 184.513595 23.3004435zM268.928982 90.0567308L280.070618 94.5136284C278.349366 98.8165234 276.676868 105.621194 275.929947 111.704059 275.532239 114.942964 275.40983 117.837613 275.580135 120.12971 275.719363 122.003555 276.044181 123.253502 276.298669 123.677023L276.331 123.726 276.36455 123.739863 276.502791 123.817032C276.811502 123.985721 277.270468 124.160453 277.886096 124.327565L278.124312 124.389848C279.506563 124.738092 281.13506 124.966591 284.180947 125.257607L288.940739 125.702555C293.458164 126.146129 295.740859 126.482386 298.865699 127.189703L299.143684 127.253088C307.224389 129.108694 313.854545 132.558333 319.140944 138.411938L319.51626 138.834152 310.48534 146.736207C306.9671 142.715361 302.442718 140.322986 296.457975 138.948684L295.76671 138.793791C292.975643 138.18515 290.708833 137.908392 285.182166 137.400763L282.901108 137.19013C279.328851 136.8474 277.303696 136.558085 275.19265 136.026229 271.498343 135.095487 268.642576 133.535006 266.66137 130.833362 261.268473 123.479411 263.489424 104.265287 268.581406 90.9455587L268.928982 90.0567308z" mask="url(#b)"/><path fill="#CAC3C1" fill-opacity=".48" fill-rule="nonzero" d="M153.309087 356.881467L159.116513 362.688892C156.473197 365.332208 153.558943 369.282742 151.791157 372.221203L151.546569 372.633848 144.453031 368.494511C146.425495 365.114321 149.681923 360.620746 152.874288 357.323464L153.309087 356.881467zM167.278087 358.381467L173.085513 364.188892C172.315113 364.959292 171.571892 365.821264 170.850435 366.769839 170.096994 367.760466 169.391604 368.810436 168.682567 369.972895L168.19172 370.795433 166.547007 373.687096 159.452593 369.549263 160.949856 366.912345C161.067884 366.707681 161.17467 366.524166 161.261282 366.377952 162.241262 364.723604 163.222819 363.231863 164.313395 361.797968 165.093573 360.772187 165.906343 359.809396 166.760532 358.912022L167.278087 358.381467zM178.10532 359.485821L185.89628 362.084539C184.685007 365.715934 184.159669 369.056711 184.110163 373.134966L184.10627 373.78518 175.89333 373.78518C175.89333 368.798876 176.479474 364.588041 177.897117 360.125195L178.10532 359.485821z" mask="url(#b)"/><polygon fill="#CAC3C1" fill-opacity=".48" fill-rule="nonzero" points="188.893 360.785 197.106 360.785 197.107 373.285 188.894 373.285" mask="url(#b)"/><path fill="#CAC3C1" fill-opacity=".48" fill-rule="nonzero" d="M207.774241 359.167562C210.223526 364.882559 211.518345 369.043453 211.601945 373.340141L211.60627 373.78518 203.39333 373.78518C203.39333 370.890627 202.408387 367.567364 200.440018 362.907252L200.225359 362.402797 207.774241 359.167562zM241.547007 369.549263L234.453 373.686 233.056095 371.096399C232.214636 369.556921 231.1873 367.706959 230.551103 366.65462L230.453985 366.495252C229.257705 364.549298 228.127116 362.992202 227.101289 361.91284L226.883087 361.688892 232.690513 355.881467C234.19974 357.390694 235.654296 359.330384 237.133255 361.683515L237.624813 362.480974C238.987976 364.749728 241.563929 369.543833 241.562767 369.574098L241.547007 369.549263zM218.230513 357.934467C220.098042 359.801996 221.645816 361.731124 223.021051 363.802275 223.437181 364.428981 223.823508 365.046444 224.219268 365.710385L224.720046 366.566676 225.546569 368.007511 218.453031 372.146848 217.424504 370.356527C216.995358 369.620929 216.602439 368.982974 216.179049 368.345334 215.213415 366.891056 214.151273 365.539357 212.900956 364.230726L212.423087 363.741892 218.230513 357.934467z" mask="url(#b)"/><path fill="#FFF" d="M158.0858,370.78518 C164.7658,375.24818 175.7708,379.65718 193.8208,379.65718 C210.7538,379.65718 221.8708,376.00918 228.9918,371.10318 C229.6508,373.84718 229.9998,376.71118 229.9998,379.65718 C229.9998,399.81618 213.9998,416.15718 193.4998,416.15718 C172.9998,416.15718 156.9998,399.81618 156.9998,379.65718 C156.9998,376.59718 157.3768,373.62518 158.0858,370.78518 Z" mask="url(#b)"/></g></g></svg>